<?xml version="1.0" encoding="UTF-8"?>
<svg xmlns="http://www.w3.org/2000/svg" viewBox="0 0 1500 906.332">
  <path fill="#ffcd05" d="M1072.481 395.904H1500v-1.738h-427.519c-50.27 0-97.532 19.576-133.079 55.123-35.546 35.547-55.123 82.808-55.123 133.079 0 50.27 19.577 97.532 55.124 133.079 35.546 35.546 82.808 55.123 133.078 55.123H1500v-1.738h-9.72a375.725 375.725 0 0 0-10.468-27.775c-18.947-44.797-46.072-85.028-80.62-119.576-34.549-34.549-74.78-61.673-119.576-80.621-46.38-19.617-95.646-29.563-146.431-29.563H900.094a185.628 185.628 0 0 1 5.832-12.715h225.254c171.314 0 317.1 111.346 368.82 265.465v-5.618a388.378 388.378 0 0 0-8.867-22.993c-19.676-46.518-47.844-88.296-83.72-124.173-35.877-35.876-77.655-64.043-124.173-83.719-48.162-20.37-99.322-30.7-152.06-30.7H906.815a186.5 186.5 0 0 1 7.236-12.714h215.125c166.106 0 309.072 100.927 370.824 244.673v-4.652c-20.266-45.97-48.625-87.363-84.366-123.105-37.205-37.204-80.53-66.414-128.77-86.818-49.945-21.125-102.999-31.836-157.688-31.836h-214.03a187.335 187.335 0 0 1 8.87-12.715h203.156c162.607 0 303.811 93.37 372.828 229.311v-4.144c-19.798-38.302-45.319-73.188-76.145-104.015-38.533-38.532-83.404-68.785-133.366-89.917-51.728-21.88-106.676-32.973-163.317-32.973H925.355c3.43-4.4 7.05-8.643 10.852-12.715h188.96c160.083 0 300.117 87.466 374.833 217.116v-3.837c-18.681-31.945-41.404-61.371-67.924-87.891-39.86-39.86-86.278-71.156-137.963-93.017-53.51-22.633-110.352-34.109-168.946-34.109H937.851c33.965-35.465 81.763-57.582 134.63-57.582Zm0 372.928c-57.829 0-109.594-26.462-143.822-67.913h230.582c57.826 0 109.584 26.464 143.812 67.913h-230.572Zm232.949 0a191.533 191.533 0 0 0-13.11-14.528c-35.547-35.546-82.809-55.123-133.08-55.123H927.243a187.581 187.581 0 0 1-9.391-12.715h239.385c66.485 0 125.526 32.463 162.119 82.366h-13.925Zm16.216 0a205.29 205.29 0 0 0-21.106-24.745c-38.278-38.278-89.17-59.358-143.304-59.358H916.691a186.751 186.751 0 0 1-7.672-12.715h246.213c74.989 0 141.144 38.525 179.729 96.818h-13.315Zm15.521 0a217.637 217.637 0 0 0-28.406-34.962c-19.94-19.94-43.16-35.595-69.015-46.531-26.768-11.322-55.203-17.063-84.514-17.063H908.074a185.846 185.846 0 0 1-6.215-12.715h251.369c83.385 0 156.534 44.64 196.826 111.27h-12.887Zm15.04 0c-9.773-16.383-21.551-31.506-35.225-45.18-21.268-21.267-46.034-37.965-73.611-49.63-28.552-12.076-58.88-18.199-90.143-18.199H901.1a185.193 185.193 0 0 1-4.924-12.714h255.046c91.706 0 171.764 50.795 213.539 125.723h-12.556Zm14.656 0c-11.151-20.27-25.097-38.834-41.66-55.397-22.596-22.596-48.909-40.336-78.208-52.729-30.334-12.83-62.556-19.335-95.772-19.335H895.586a184.787 184.787 0 0 1-3.753-12.715h257.386c99.969 0 186.873 56.986 229.95 140.176h-12.306Zm14.363 0c-12.365-24.186-28.386-46.198-47.802-65.614-23.924-23.924-51.783-42.707-82.804-55.828-32.117-13.584-66.233-20.472-101.401-20.472H891.397a185.036 185.036 0 0 1-2.657-12.715h258.475c108.186 0 201.884 63.206 246.118 154.629h-12.107Zm14.129 0c-13.446-28.126-31.47-53.591-53.71-75.831-25.252-25.252-54.658-45.078-87.401-58.927-33.9-14.338-69.91-21.609-107.03-21.609H888.448a185.953 185.953 0 0 1-1.623-12.714h258.386c116.37 0 216.819 69.452 262.085 169.08h-11.94Zm13.933 0c-14.417-32.083-34.382-61.008-59.422-86.048-26.58-26.58-57.532-47.449-91.997-62.026-35.683-15.093-73.586-22.745-112.659-22.745H886.671c-.35-4.201-.562-8.44-.628-12.715h257.163c124.524 0 231.69 75.72 277.886 183.534h-11.804Zm13.783 0c-15.3-36.055-37.16-68.442-64.984-96.265-27.908-27.908-60.407-49.82-96.594-65.126-37.465-15.846-77.263-23.88-118.287-23.88H886.025c-.003-.398-.008-.795-.008-1.194 0-3.869.12-7.71.354-11.522h254.831c132.654 0 246.508 82.009 293.545 197.987h-11.676Zm13.635 0c-.71-1.769-1.43-3.534-2.174-5.292-16.034-37.909-38.988-71.954-68.224-101.19-29.236-29.237-63.281-52.19-101.19-68.225-39.249-16.6-80.94-25.017-123.916-25.017H886.487c.302-4.28.746-8.52 1.334-12.715h251.376c140.768 0 261.293 88.311 309.096 212.439h-11.587Zm13.534 0a334.098 334.098 0 0 0-4.388-10.913c-16.762-39.63-40.759-75.222-71.323-105.787-30.564-30.564-66.156-54.56-105.787-71.323-41.03-17.354-84.616-26.154-129.545-26.154H888.075c.641-4.287 1.43-8.527 2.358-12.715h246.76c148.864 0 276.037 94.63 324.54 226.892h-11.493Zm13.424 0a347.325 347.325 0 0 0-6.492-16.534c-17.49-41.352-42.53-78.49-74.422-110.383-31.892-31.892-69.031-56.931-110.383-74.422-42.814-18.109-88.293-27.29-135.174-27.29H890.826a184.773 184.773 0 0 1 3.434-12.716h240.929c156.947 0 290.75 100.961 339.895 241.345h-11.42Zm-330.48-255.797c165.02 0 305.441 107.303 355.179 255.797h-11.353a361.558 361.558 0 0 0-8.518-22.154c-18.219-43.075-44.3-81.76-77.521-114.98-33.22-33.22-71.905-59.303-114.98-77.522-44.596-18.862-91.97-28.427-140.802-28.427H894.806a185.001 185.001 0 0 1 4.58-12.714h233.799ZM974.57 906.332h-5.128a348.848 348.848 0 0 1-10.086-4.074c-41.352-17.49-78.49-42.53-110.383-74.422-31.892-31.893-56.931-69.031-74.422-110.384-18.11-42.813-27.29-88.292-27.29-135.173-.001-46.88 9.18-92.36 27.29-135.173 17.49-41.353 42.53-78.492 74.422-110.384 31.892-31.893 69.03-56.932 110.383-74.422 42.814-18.11 88.293-27.291 135.174-27.291H1500v1.737h-405.471c-190.527 0-345.532 155.006-345.532 345.532 0 148.37 94 275.192 225.572 324.054ZM1500 381.435h-425.514c-110.79 0-200.925 90.134-200.925 200.924s90.134 200.925 200.925 200.925H1500v1.738h-425.514c-54.133 0-105.027-21.08-143.304-59.358-38.278-38.278-59.359-89.171-59.359-143.304 0-54.133 21.08-105.027 59.358-143.305 38.278-38.277 89.171-59.358 143.305-59.358H1500v1.738Zm0-159.157h-403.467c-198.5 0-359.993 161.492-359.993 359.993 0 142.367 83.074 265.694 203.29 324.061h-4.22c-35.064-17.415-66.897-40.317-94.859-68.279-33.22-33.22-59.303-71.905-77.522-114.98-18.862-44.596-28.426-91.97-28.426-140.802s9.564-96.206 28.426-140.802c18.22-43.075 44.301-81.76 77.522-114.98 33.22-33.221 71.905-59.303 114.98-77.522 44.596-18.863 91.969-28.427 140.802-28.427H1500v1.738Zm0 144.687h-423.51c-118.764 0-215.386 96.622-215.386 215.386s96.622 215.386 215.386 215.386H1500v1.738h-423.51c-29.311 0-57.746-5.741-84.515-17.063-25.855-10.936-49.074-26.591-69.014-46.531-19.94-19.94-35.596-43.16-46.531-69.015-11.322-26.768-17.063-55.203-17.063-84.514s5.74-57.747 17.063-84.515c10.935-25.855 26.59-49.075 46.53-69.015 19.94-19.94 43.16-35.595 69.015-46.531 26.77-11.323 55.204-17.063 84.515-17.063H1500v1.737Zm-475.472 539.367h-8.264a330.375 330.375 0 0 1-53.284-17.39c-39.63-16.763-75.223-40.76-105.787-71.324-30.564-30.564-54.561-66.156-71.323-105.786-17.355-41.031-26.155-84.616-26.155-129.545s8.8-88.513 26.155-129.545c16.762-39.63 40.758-75.222 71.323-105.787 30.564-30.564 66.156-54.56 105.787-71.323 41.03-17.355 84.616-26.155 129.544-26.155H1500v1.738h-407.476c-182.553 0-331.07 148.518-331.07 331.072 0 159.253 113.027 292.6 263.074 324.046ZM1500 352.497h-421.506c-126.737 0-229.846 103.109-229.846 229.846 0 126.738 103.109 229.847 229.846 229.847H1500v1.737h-421.506c-31.263 0-61.592-6.123-90.143-18.199-27.577-11.664-52.343-28.362-73.611-49.63-21.268-21.268-37.966-46.034-49.63-73.611-12.077-28.551-18.2-58.88-18.2-90.143s6.123-61.592 18.2-90.144c11.664-27.577 28.362-52.343 49.63-73.612 21.268-21.267 46.034-37.965 73.611-49.63 28.551-12.076 58.88-18.199 90.143-18.199H1500v1.738Zm0-144.688h-401.463c-206.474 0-374.453 167.98-374.453 374.453 0 138.23 75.29 259.2 187.012 324.07h-3.774c-27.154-16.036-52.19-35.46-74.792-58.062-34.548-34.548-61.673-74.78-80.62-119.576-19.617-46.38-29.564-95.646-29.564-146.43s9.947-100.053 29.564-146.432c18.947-44.797 46.072-85.028 80.62-119.577 34.548-34.548 74.78-61.673 119.576-80.62 46.38-19.617 95.646-29.564 146.431-29.564H1500v1.738Zm0-43.407h-395.45c-230.395 0-417.835 187.44-417.835 417.836 0 130.614 60.245 247.416 154.402 324.094h-3.087a425.133 425.133 0 0 1-30.163-27.41c-38.533-38.533-68.785-83.403-89.918-133.366-21.879-51.728-32.972-106.675-32.972-163.317s11.093-111.59 32.972-163.318c21.133-49.962 51.385-94.834 89.918-133.366 38.533-38.533 83.403-68.785 133.366-89.918 51.728-21.88 106.675-32.972 163.317-32.972H1500v1.737Zm0 14.47h-397.454c-222.422 0-403.375 180.953-403.375 403.374 0 132.637 64.353 250.522 163.47 324.086h-3.252a408.465 408.465 0 0 1-43.3-37.627c-37.205-37.205-66.415-80.53-86.82-128.77-21.124-49.944-31.836-102.998-31.836-157.688s10.711-107.744 31.836-157.689c20.405-48.24 49.614-91.565 86.819-128.77 37.205-37.204 80.529-66.414 128.77-86.818 49.944-21.125 102.998-31.836 157.688-31.836H1500v1.738Zm0 14.468h-399.459c-214.448 0-388.914 174.466-388.913 388.914 0 135.11 69.256 254.343 174.128 324.078h-3.483c-20.694-13.964-40.064-29.944-57.964-47.845-35.876-35.876-64.044-77.654-83.72-124.172-20.37-48.163-30.7-99.323-30.7-152.06 0-52.738 10.33-103.898 30.7-152.06 19.676-46.519 47.843-88.296 83.72-124.173 35.876-35.876 77.654-64.044 124.173-83.72 48.162-20.37 99.322-30.7 152.06-30.7H1500v1.738Zm0 72.344h-409.48c-174.58 0-316.61 142.03-316.61 316.61s142.03 316.612 316.61 316.611H1500v1.738h-409.48c-42.976 0-84.667-8.417-123.916-25.017-37.909-16.034-71.954-38.988-101.19-68.225-29.236-29.236-52.19-63.281-68.224-101.19-16.6-39.248-25.018-80.94-25.018-123.916s8.417-84.668 25.018-123.916c16.034-37.909 38.988-71.954 68.224-101.19 29.236-29.237 63.281-52.191 101.19-68.225 39.248-16.6 80.94-25.018 123.916-25.018H1500v1.738Zm0 72.344h-419.502c-134.71 0-244.306 109.596-244.306 244.307 0 134.711 109.595 244.307 244.306 244.307H1500v1.738h-419.502c-33.215 0-65.437-6.505-95.771-19.336-29.3-12.392-55.612-30.133-78.208-52.729-22.596-22.596-40.337-48.909-52.73-78.208-12.83-30.334-19.335-62.556-19.335-95.771 0-33.216 6.505-65.439 19.336-95.773 12.392-29.299 30.133-55.612 52.728-78.208 22.597-22.596 48.91-40.337 78.209-52.729 30.334-12.83 62.556-19.336 95.771-19.336H1500v1.738ZM100.209 128.525C82.93 87.675 73.46 44.496 71.99 0h1.743c6.495 192.838 165.388 347.715 359.78 347.715 194.39 0 353.284-154.876 359.78-347.715h1.742c-1.47 44.496-10.941 87.676-28.219 128.525-18.219 43.075-44.3 81.76-77.522 114.98-33.22 33.22-71.905 59.302-114.98 77.521-44.596 18.863-91.97 28.427-140.802 28.427-48.833 0-96.206-9.564-140.802-28.427-43.075-18.219-81.76-44.301-114.98-77.522-33.22-33.22-59.302-71.905-77.521-114.98Zm26.632-7.25C110.553 82.767 101.802 42.008 100.788 0h1.74c4.404 178.748 151.18 322.802 330.968 322.803 179.79 0 326.565-144.055 330.969-322.803h1.74c-1.014 42.008-9.765 82.767-26.054 121.276-16.762 39.63-40.759 75.223-71.323 105.787-30.565 30.564-66.156 54.56-105.787 71.323-41.032 17.355-84.617 26.154-129.545 26.154-44.929 0-88.514-8.8-129.545-26.154-39.63-16.762-75.222-40.76-105.786-71.323-30.565-30.565-54.561-66.157-71.324-105.788Zm-13.316 3.625C96.742 85.221 87.633 43.252 86.388 0h1.741c5.453 185.794 158.285 335.259 345.376 335.259 187.09 0 339.922-149.465 345.375-335.259h1.74c-1.244 43.252-10.353 85.222-27.136 124.9-17.491 41.353-42.53 78.492-74.423 110.384-31.892 31.892-69.031 56.931-110.384 74.422-42.814 18.109-88.292 27.29-135.173 27.29s-92.36-9.181-135.173-27.29c-41.353-17.49-78.491-42.53-110.384-74.423-31.892-31.892-56.931-69.03-74.422-110.383Zm26.632-7.249C124.365 80.313 115.985 40.763 115.206 0h1.74c3.349 171.699 144.056 310.346 316.542 310.346 172.487 0 313.194-138.647 316.544-310.346h1.74c-.78 40.763-9.16 80.314-24.953 117.652-16.034 37.909-38.988 71.954-68.225 101.19-29.236 29.236-63.281 52.19-101.19 68.224-39.248 16.6-80.94 25.018-123.916 25.018-42.977 0-84.668-8.418-123.916-25.018-37.909-16.034-71.954-38.988-101.19-68.224-29.237-29.236-52.19-63.282-68.225-101.19Zm26.633-7.249C151.988 75.407 144.348 38.275 144.059 0h1.738c1.217 157.597 129.796 285.433 287.675 285.433 157.88 0 286.458-127.836 287.675-285.433h1.738c-.289 38.275-7.93 75.407-22.731 110.403-14.577 34.464-35.446 65.417-62.027 91.997-26.58 26.58-57.532 47.449-91.997 62.026-35.683 15.093-73.586 22.745-112.659 22.745-39.072 0-76.975-7.653-112.658-22.745-34.465-14.578-65.417-35.446-91.997-62.027-26.58-26.58-47.449-57.532-62.026-91.997Zm-13.316 3.625C138.176 77.86 130.16 39.519 129.624 0h1.738c2.287 164.65 136.934 297.89 302.118 297.89 165.183 0 299.831-133.24 302.118-297.89h1.738c-.537 39.52-8.552 77.86-23.85 114.027-15.306 36.187-37.217 68.686-65.125 96.594-27.908 27.908-60.407 49.82-96.594 65.125-37.465 15.847-77.263 23.882-118.287 23.881-41.025 0-80.822-8.034-118.287-23.88-36.187-15.307-68.686-37.218-96.594-65.126-27.908-27.908-49.82-60.408-65.125-96.594Zm-79.898 21.746C55.31 92.585 45.123 46.985 43.213 0h1.744c8.566 206.925 179.58 372.628 388.572 372.628S813.534 206.925 822.1 0h1.744c-1.91 46.985-12.096 92.586-30.363 135.774-19.676 46.518-47.844 88.296-83.72 124.173-35.877 35.876-77.654 64.044-124.173 83.72-48.162 20.37-99.322 30.699-152.06 30.699-52.737 0-103.897-10.329-152.06-30.7-46.518-19.676-88.296-47.843-124.172-83.72-35.877-35.876-64.044-77.654-83.72-124.173Zm-39.949 10.874C13.877 99.952 2.625 50.719.08 0h1.746c11.644 228.047 200.837 409.997 431.728 409.997 230.89 0 420.084-181.95 431.728-409.997h1.746c-2.546 50.72-13.799 99.952-33.549 146.648-21.86 51.684-53.156 98.101-93.017 137.962-39.86 39.86-86.278 71.156-137.963 93.016-53.51 22.633-110.352 34.11-168.946 34.109-58.594 0-115.435-11.476-168.946-34.11-51.684-21.86-98.102-53.155-137.962-93.016-39.86-39.86-71.156-86.278-93.017-137.962Zm655.304 554.272H0v-1.737h688.441a428.504 428.504 0 0 1-3.341-12.715H0v-1.738h684.668a428.46 428.46 0 0 1-2.87-12.715H0v-1.738h681.435a429.307 429.307 0 0 1-2.425-12.715H0v-1.737h678.715a431.086 431.086 0 0 1-1.976-12.715H0v-1.738h676.497a433.304 433.304 0 0 1-1.53-12.715H0v-1.737h674.783c-.43-4.228-.8-8.466-1.108-12.716H0v-1.737h673.557c-.289-4.228-.52-8.466-.687-12.715H0v-1.738h672.803c-.15-4.228-.235-8.467-.264-12.715H0v-1.737h672.529c-.002-.444-.008-.886-.008-1.33 0-3.803.05-7.598.147-11.385H0v-1.738h672.721c.125-4.249.31-8.487.556-12.715H0v-1.738h673.376c.265-4.25.597-8.487.984-12.715H0v-1.737h674.522c.406-4.25.87-8.49 1.4-12.716H0v-1.737h676.15c.55-4.251 1.161-8.49 1.837-12.715H0v-1.738h678.265c.698-4.252 1.465-8.49 2.29-12.715H0v-1.737h680.894a428.86 428.86 0 0 1 2.737-12.715H0v-1.738h684.04a428.504 428.504 0 0 1 3.193-12.715H0v-1.737h687.71a429.005 429.005 0 0 1 3.677-12.716H0v-1.737h691.92a432.863 432.863 0 0 1 14.71-40.202c21.86-51.685 53.155-98.102 93.016-137.963 39.86-39.861 86.278-71.156 137.962-93.017 53.51-22.633 110.352-34.11 168.946-34.11H1500v1.739h-393.446c-238.369 0-432.296 193.927-432.296 432.296 0 128.917 56.727 244.83 146.525 324.103h-2.935a442.035 442.035 0 0 1-18.202-17.194c-39.86-39.86-71.156-86.278-93.016-137.962a432.047 432.047 0 0 1-17.7-50.258ZM46.944 143.022C27.688 97.496 16.79 49.474 14.454 0h1.748c10.621 221.007 193.752 397.54 417.343 397.54C657.137 397.542 840.267 221.008 850.888 0h1.748c-2.337 49.475-13.234 97.496-32.49 143.023-21.133 49.962-51.385 94.833-89.918 133.366-38.532 38.532-83.404 68.785-133.366 89.917-51.728 21.88-106.676 32.973-163.318 32.973-56.642 0-111.59-11.094-163.317-32.973-49.963-21.132-94.833-51.385-133.366-89.918-38.532-38.532-68.785-83.403-89.917-133.366Zm13.316-3.624C41.499 95.04 30.959 48.23 28.833 0h1.746c9.596 213.966 186.666 385.084 402.958 385.084 216.291 0 393.36-171.118 402.957-385.084h1.746c-2.125 48.23-12.665 95.041-31.427 139.398-20.404 48.24-49.614 91.565-86.819 128.77-37.204 37.204-80.529 66.414-128.77 86.818-49.944 21.125-102.998 31.836-157.688 31.836-54.69 0-107.744-10.711-157.688-31.836-48.24-20.404-91.565-49.614-128.77-86.819-37.204-37.204-66.414-80.529-86.818-128.77Zm26.632-7.249C69.12 90.13 59.285 45.741 57.592 0h1.745c7.532 199.883 172.49 360.171 374.184 360.172 201.692 0 366.65-160.29 374.183-360.172h1.744c-1.692 45.741-11.527 90.13-29.3 132.15-18.947 44.796-46.072 85.027-80.62 119.576-34.549 34.548-74.78 61.673-119.577 80.62-46.38 19.617-95.646 29.563-146.431 29.563-50.785 0-100.052-9.946-146.43-29.563-44.797-18.947-85.029-46.072-119.577-80.62-34.549-34.549-61.673-74.78-80.62-119.577ZM1500 294.622h-413.489c-158.632 0-287.689 129.057-287.689 287.689 0 158.633 129.057 287.69 287.69 287.69H1500v1.737h-413.489c-39.072 0-76.975-7.652-112.658-22.745-34.465-14.577-65.417-35.446-91.997-62.026-26.58-26.58-47.449-57.532-62.026-91.997-15.093-35.683-22.745-73.586-22.745-112.659 0-39.072 7.652-76.975 22.745-112.658 14.577-34.465 35.446-65.417 62.026-91.997 26.58-26.58 57.532-47.45 91.997-62.027 35.683-15.092 73.586-22.745 112.658-22.745H1500v1.738ZM300.336 144.853c-35.546-35.547-55.123-82.808-55.123-133.079V0h1.738v11.774c0 102.817 83.648 186.464 186.465 186.464 102.816 0 186.463-83.647 186.464-186.464V0h1.737v11.774c0 50.271-19.576 97.533-55.123 133.08-35.547 35.546-82.808 55.122-133.079 55.122-50.27 0-97.532-19.576-133.079-55.123ZM1500 280.153h-411.484c-166.607 0-302.15 135.544-302.15 302.15 0 166.606 135.544 302.15 302.15 302.15H1500v1.738h-411.484c-41.024 0-80.822-8.035-118.287-23.882-36.187-15.305-68.686-37.217-96.594-65.125-27.908-27.908-49.82-60.407-65.126-96.594-15.846-37.465-23.88-77.262-23.88-118.287s8.034-80.822 23.88-118.287c15.306-36.187 37.218-68.686 65.126-96.594 27.908-27.908 60.407-49.82 96.594-65.125 37.465-15.847 77.262-23.882 118.287-23.882H1500v1.738Zm0 28.938h-415.493c-150.659 0-273.228 122.57-273.228 273.228 0 150.659 122.57 273.229 273.228 273.229H1500v1.737h-415.493c-37.12 0-73.13-7.27-107.03-21.608-32.742-13.85-62.148-33.675-87.4-58.927-25.252-25.252-45.078-54.658-58.927-87.401-14.339-33.9-21.609-69.91-21.609-107.03s7.27-73.13 21.609-107.03c13.848-32.742 33.675-62.148 58.927-87.4 25.252-25.253 54.658-45.078 87.4-58.928 33.9-14.338 69.91-21.608 107.03-21.608H1500v1.738Zm0 14.468h-417.497c-142.685 0-258.768 116.083-258.768 258.768 0 142.685 116.083 258.768 258.768 258.768H1500v1.737h-417.497c-35.168 0-69.284-6.887-101.401-20.471-31.02-13.121-58.88-31.904-82.804-55.829-23.924-23.924-42.708-51.783-55.828-82.804-13.585-32.117-20.472-66.233-20.472-101.4s6.887-69.285 20.472-101.401c13.12-31.021 31.904-58.881 55.827-82.805 23.925-23.924 51.784-42.707 82.805-55.829 32.117-13.583 66.233-20.471 101.4-20.471H1500v1.737ZM206.739 99.53c-12.83-30.334-19.336-62.556-19.336-95.772V0h1.738v3.757c0 134.711 109.596 244.307 244.307 244.307 134.711 0 244.307-109.595 244.307-244.307V0h1.738v3.757c0 33.216-6.506 65.438-19.336 95.772-12.392 29.3-30.133 55.612-52.73 78.208-22.595 22.596-48.908 40.337-78.207 52.729-30.334 12.83-62.557 19.336-95.773 19.336-33.215 0-65.437-6.506-95.771-19.336-29.3-12.393-55.612-30.133-78.208-52.729-22.596-22.596-40.337-48.91-52.73-78.208Zm-26.633 7.249C165.8 72.955 158.532 37.03 158.5 0h1.738c.137 150.543 122.652 272.977 273.227 272.977S706.554 150.543 706.691 0h1.738c-.033 37.03-7.301 72.955-21.607 106.778-13.85 32.743-33.675 62.149-58.927 87.401-25.253 25.252-54.659 45.078-87.402 58.927-33.9 14.339-69.91 21.609-107.03 21.609-37.12 0-73.129-7.27-107.029-21.609-32.743-13.849-62.149-33.675-87.4-58.927-25.253-25.252-45.079-54.658-58.928-87.401Zm13.317-3.624C179.838 71.036 172.95 36.92 172.95 1.753V0h1.738v1.753c0 142.684 116.083 258.767 258.768 258.767 142.685 0 258.768-116.082 258.768-258.767V0h1.737v1.753c0 35.168-6.887 69.284-20.471 101.4-13.122 31.022-31.905 58.881-55.829 82.805-23.924 23.924-51.784 42.707-82.805 55.828-32.116 13.584-66.233 20.472-101.4 20.472-35.168 0-69.284-6.888-101.401-20.472-31.021-13.12-58.88-31.904-82.804-55.828-23.925-23.924-42.708-51.784-55.828-82.804ZM233.37 92.28c-11.322-26.769-17.063-55.203-17.063-84.514V0h1.738v7.766c0 118.764 96.622 215.385 215.386 215.385S648.817 126.53 648.818 7.766V0h1.737v7.766c0 29.311-5.74 57.746-17.063 84.514-10.936 25.855-26.59 49.075-46.53 69.015-19.94 19.94-43.16 35.595-69.016 46.531-26.768 11.322-55.204 17.063-84.515 17.063-29.31 0-57.746-5.74-84.514-17.063-25.855-10.936-49.075-26.591-69.015-46.531-19.94-19.94-35.595-43.16-46.53-69.015Zm56.748 60.794c-38.278-38.278-59.358-89.171-59.358-143.304V0h1.738v9.77c0 110.79 90.134 200.925 200.925 200.925 110.79 0 200.924-90.134 200.924-200.925V0h1.738v9.77c0 54.133-21.08 105.026-59.358 143.304-38.278 38.278-89.171 59.359-143.305 59.358-54.133 0-105.026-21.08-143.304-59.358Zm-70.064-57.17c-12.076-28.55-18.2-58.88-18.2-90.143V0h1.739v5.761c0 126.738 103.108 229.846 229.846 229.847 126.737 0 229.846-103.109 229.846-229.846V0h1.738v5.762c0 31.263-6.123 61.591-18.2 90.143-11.663 27.577-28.362 52.343-49.63 73.611-21.268 21.268-46.034 37.966-73.611 49.63-28.552 12.076-58.88 18.2-90.144 18.2-31.263 0-61.591-6.124-90.143-18.2-27.577-11.664-52.343-28.362-73.611-49.63-21.268-21.268-37.966-46.035-49.63-73.612Z"></path>
</svg>
